<?xml version="1.0" ?><svg style="enable-background:new 0 0 685.309 580.526;" version="1.1" viewBox="0 0 685.309 580.526" xml:space="preserve" xmlns="http://www.w3.org/2000/svg" xmlns:xlink="http://www.w3.org/1999/xlink"><g id="_x35_-Mountains"><g><path d="M113.472,162.513l4.703-4.7c6.274-6.274,6.274-16.444,0-22.718c-6.274-6.269-16.438-6.269-22.713,0    l-4.706,4.706l-4.706-4.706c-6.274-6.269-16.438-6.269-22.713,0c-6.274,6.274-6.274,16.444,0,22.718l4.703,4.7l-4.703,4.706    c-6.274,6.274-6.274,16.444,0,22.713c3.137,3.137,7.247,4.706,11.356,4.706s8.219-1.569,11.356-4.706l4.706-4.706l4.706,4.706    c3.137,3.137,7.247,4.706,11.356,4.706c4.11,0,8.219-1.569,11.356-4.706c6.274-6.269,6.274-16.438,0-22.713L113.472,162.513z" style="fill:#03A8F3;"/><path d="M238.734,32.12l4.706-4.7c6.274-6.274,6.274-16.444,0-22.718c-6.274-6.269-16.438-6.269-22.713,0    l-4.706,4.706l-4.7-4.7c-6.274-6.274-16.438-6.274-22.713-0.005c-6.274,6.274-6.274,16.444,0,22.718l4.7,4.7l-4.706,4.706    c-6.274,6.274-6.274,16.444,0,22.718c3.137,3.132,7.247,4.7,11.356,4.7c4.11,0,8.219-1.569,11.356-4.7l4.706-4.711l4.706,4.706    c3.137,3.137,7.247,4.706,11.356,4.706c4.11,0,8.219-1.569,11.356-4.7c6.274-6.274,6.274-16.444,0-22.718L238.734,32.12z" style="fill:#03A8F3;"/><path d="M642.998,251.633l4.703-4.7c6.274-6.274,6.274-16.444,0-22.718c-6.274-6.269-16.438-6.269-22.713,0    l-4.706,4.706l-4.706-4.706c-6.274-6.269-16.438-6.269-22.713,0c-6.274,6.274-6.274,16.444,0,22.718l4.703,4.7l-4.703,4.706    c-6.274,6.274-6.274,16.444,0,22.718c3.137,3.132,7.247,4.7,11.356,4.7c4.11,0,8.219-1.569,11.356-4.7l4.706-4.706l4.706,4.706    c3.137,3.132,7.247,4.7,11.356,4.7c4.11,0,8.219-1.569,11.356-4.7c6.274-6.274,6.274-16.444,0-22.718L642.998,251.633z" style="fill:#03A8F3;"/><path d="M558.119,32.12l4.703-4.7c6.274-6.274,6.274-16.444,0-22.718c-6.274-6.269-16.438-6.269-22.713,0    l-4.706,4.706l-4.706-4.706c-6.274-6.269-16.438-6.269-22.713,0c-6.274,6.274-6.274,16.444,0,22.718l4.703,4.7l-4.703,4.706    c-6.274,6.274-6.274,16.444,0,22.718c3.137,3.132,7.247,4.7,11.356,4.7s8.219-1.569,11.356-4.7l4.706-4.706l4.706,4.706    c3.137,3.132,7.247,4.7,11.356,4.7c4.11,0,8.219-1.569,11.356-4.7c6.274-6.274,6.274-16.444,0-22.718L558.119,32.12z" style="fill:#03A8F3;"/><path d="M682.439,548.402L413.402,82.298c-3.822-6.63-10.891-10.713-18.54-10.713h-0.005    c-7.649,0-14.718,4.083-18.545,10.703L107.289,548.015c-3.827,6.624-3.827,14.786-0.005,21.411    c3.822,6.63,10.886,10.713,18.535,10.718l538.059,0.382c0.005,0,0.01,0,0.016,0c7.649,0,14.713-4.078,18.54-10.703    C686.266,563.199,686.266,555.032,682.439,548.402z" style="fill:#4E342E;"/><path d="M682.439,548.402L413.402,82.298c-3.822-6.63-10.891-10.713-18.54-10.713h-0.005    c-7.649,0-14.718,4.083-18.545,10.703l-20.281,35.109l248.777,431.006c3.827,6.63,3.827,14.797-0.005,21.421    c-3.757,6.504-10.64,10.499-18.127,10.645l77.204,0.057c0.005,0,0.01,0,0.016,0c7.649,0,14.713-4.078,18.54-10.703    C686.266,563.199,686.266,555.032,682.439,548.402z" style="fill:#3E2723;"/><path d="M413.402,82.298c-3.822-6.63-10.891-10.713-18.54-10.713h-0.005    c-7.649,0-14.718,4.083-18.545,10.703L243.183,312.759h303.242L413.402,82.298z" style="fill:#D6CBC7;"/><path d="M413.402,82.298c-3.822-6.63-10.891-10.713-18.54-10.713h-0.005    c-7.649,0-14.718,4.083-18.545,10.703l-20.281,35.109l112.763,195.363h77.633L413.402,82.298z" style="fill:#BBA9A3;"/><path d="M459.669,548.24L249.813,184.656c-3.822-6.624-10.891-10.708-18.54-10.708    c-0.005,0-0.005,0-0.005,0c-7.649,0-14.718,4.078-18.545,10.703L2.871,547.937c-3.827,6.624-3.827,14.786-0.005,21.411    s10.886,10.713,18.535,10.718l419.707,0.293c0.005,0,0.01,0,0.016,0c7.649,0,14.713-4.078,18.54-10.698    C463.496,563.032,463.496,554.87,459.669,548.24z" style="fill:#795548;"/><path d="M459.669,548.24L249.813,184.656c-3.822-6.624-10.891-10.708-18.54-10.708    c-0.005,0-0.005,0-0.005,0c-7.649,0-14.718,4.078-18.545,10.703l-15.33,26.54l194.542,337.05    c3.827,6.63,3.827,14.791-0.005,21.421c-3.765,6.515-10.677,10.525-18.185,10.65l67.364,0.047c0.005,0,0.01,0,0.016,0    c7.649,0,14.713-4.078,18.54-10.698C463.496,563.032,463.496,554.87,459.669,548.24z" style="fill:#6D4C41;"/><path d="M249.813,184.656c-3.822-6.624-10.891-10.708-18.54-10.708c-0.005,0-0.005,0-0.005,0    c-7.649,0-14.718,4.078-18.545,10.703L100.835,378.345h260.774L249.813,184.656z" style="fill:#EEEAE8;"/><path d="M249.813,184.656c-3.822-6.624-10.891-10.708-18.54-10.708c-0.005,0-0.005,0-0.005,0    c-7.649,0-14.718,4.078-18.545,10.703l-15.33,26.54l96.481,167.155h67.735L249.813,184.656z" style="fill:#D6CBC7;"/></g></g><g id="Layer_1"/></svg>