<?xml version="1.0" ?><!DOCTYPE svg  PUBLIC '-//W3C//DTD SVG 1.1//EN'  'http://www.w3.org/Graphics/SVG/1.1/DTD/svg11.dtd'><svg enable-background="new 0 0 64 64" height="64px" id="Layer_1" version="1.1" viewBox="0 0 64 64" width="64px" xml:space="preserve" xmlns="http://www.w3.org/2000/svg" xmlns:xlink="http://www.w3.org/1999/xlink"><g id="cash_stash"><g id="low_shoe"><g><path d="M60.461,50.543c-2.119-1.224-12.613,5.353-23.611,5.622c-5.344,0.13-8.77-0.518-12.08-1.577     c-2.172-0.696-6.102-1.479-6.686-1.659C17.502,52.75,4.209,50.624,3,51.935v4.758c0,0-0.27,2.29,15.084,2.154v-3.039     c2.314,0.354,4.789,1.189,6.779,1.827c3.307,1.061,5.494,2.11,11.178,2.11c8.295,0,23.09-3.979,24.959-7.092L60.461,50.543z" fill="#455A64"/></g><g><path d="M3.629,51.934c-0.898-3.321-0.717-8.527,1.078-12.929c0.852,0.899,5.771,2.747,10.553,2.074     c4.781-0.674,7.785-5.664,10.951-5.664c3.164,0,9.785,6.689,9.785,6.689S6.367,53.46,3.629,51.934z" fill="#546E7A"/></g><g><g><g><path d="M7.99,43.011c-3.314-3.314-3.314-8.707,0-12.021c3.314-3.313,8.707-3.313,12.021,0       c3.313,3.314,3.313,8.707,0,12.021C16.697,46.324,11.305,46.324,7.99,43.011z" fill="#FFD740"/></g><g><path d="M14,29c4.412,0,8,3.589,8,8s-3.588,8-8,8c-4.41,0-8-3.589-8-8S9.59,29,14,29 M14,28       c-4.971,0-9,4.03-9,9s4.029,9,9,9s9-4.03,9-9S18.971,28,14,28L14,28z" fill="#FDD835"/></g></g><g><path d="M7.133,41.563c-1.367-3.184-0.766-7.009,1.836-9.609c2.734-2.734,6.826-3.263,10.1-1.606      c0-0.093,0-0.186,0.006-0.279c-3.363-2.06-7.813-1.642-10.725,1.269c-2.779,2.779-3.291,6.967-1.539,10.267      C6.918,41.586,7.025,41.57,7.133,41.563z" fill="#FFFFFF"/></g><g><g><path d="M14,43.5c-3.584,0-6.5-2.916-6.5-6.5s2.916-6.5,6.5-6.5s6.5,2.916,6.5,6.5S17.584,43.5,14,43.5z" fill="#FFE57F"/></g><g><path d="M14,31c3.309,0,6,2.691,6,6s-2.691,6-6,6s-6-2.691-6-6S10.691,31,14,31 M14,30c-3.865,0-7,3.137-7,7       s3.135,7,7,7s7-3.137,7-7S17.865,30,14,30L14,30z" fill="#FFC400"/></g></g><g><g><path d="M14,34c0.719,0,1,0.521,1,1h2c0-0.814-0.674-1.619-2-1.894V32h-2v1.092c-1.326,0.24-2,1.009-2,2.408       c0,1.313,1.031,2.5,3,2.5c0.578,0,1,0.438,1,1c0,0.595-0.334,1-1,1s-1-0.367-1-1h-2c0,1.245,0.684,1.78,2,1.94V42h2v-1.075       c1.326-0.2,2.025-0.874,2-2.425c0-1.375-1-2.499-3-2.499c-0.563,0-1-0.313-1-1.001C13,34.482,13.281,34,14,34z" fill="#FFAB00"/></g></g><g><path d="M14,29c4.412,0,8,3.589,8,8s-3.588,8-8,8c-4.41,0-8-3.589-8-8S9.59,29,14,29 M14,28c-4.971,0-9,4.03-9,9      s4.029,9,9,9s9-4.03,9-9S18.971,28,14,28L14,28z" fill="#FFC400"/></g></g><g><g><g><path d="M15.99,20.011c-3.314-3.314-3.314-8.707,0-12.021c3.314-3.313,8.707-3.313,12.021,0       c3.313,3.314,3.313,8.707,0,12.021C24.697,23.324,19.305,23.324,15.99,20.011z" fill="#FFD740"/></g><g><path d="M22,6c4.412,0,8,3.589,8,8s-3.588,8-8,8c-4.41,0-8-3.589-8-8S17.59,6,22,6 M22,5c-4.971,0-9,4.03-9,9       s4.029,9,9,9s9-4.03,9-9S26.971,5,22,5L22,5z" fill="#FDD835"/></g></g><g><path d="M15.135,18.563c-1.369-3.185-0.768-7.01,1.834-9.61c2.734-2.734,6.826-3.263,10.1-1.606      c0-0.093,0-0.186,0.008-0.279c-3.365-2.06-7.814-1.642-10.727,1.269c-2.779,2.779-3.291,6.967-1.539,10.267      C14.918,18.586,15.025,18.57,15.135,18.563z" fill="#FFFFFF"/></g><g><g><path d="M22,20.5c-3.584,0-6.5-2.916-6.5-6.5s2.916-6.5,6.5-6.5s6.5,2.916,6.5,6.5S25.584,20.5,22,20.5z" fill="#FFE57F"/></g><g><path d="M22,8c3.309,0,6,2.691,6,6s-2.691,6-6,6s-6-2.691-6-6S18.691,8,22,8 M22,7c-3.865,0-7,3.137-7,7       s3.135,7,7,7s7-3.137,7-7S25.865,7,22,7L22,7z" fill="#FFC400"/></g></g><g><g><path d="M22,11c0.719,0,1,0.521,1,1h2c0-0.814-0.674-1.619-2-1.894V9h-2v1.092c-1.326,0.24-2,1.009-2,2.408       c0,1.313,1.031,2.5,3,2.5c0.578,0,1,0.438,1,1c0,0.595-0.334,1-1,1s-1-0.367-1-1h-2c0,1.245,0.684,1.78,2,1.94V19h2v-1.075       c1.326-0.2,2.025-0.874,2-2.425c0-1.375-1-2.499-3-2.499c-0.563,0-1-0.313-1-1.001C21,11.482,21.281,11,22,11z" fill="#FFAB00"/></g></g><g><path d="M22,6c4.412,0,8,3.589,8,8s-3.588,8-8,8c-4.41,0-8-3.589-8-8S17.59,6,22,6 M22,5c-4.971,0-9,4.03-9,9      s4.029,9,9,9s9-4.03,9-9S26.971,5,22,5L22,5z" fill="#FFC400"/></g></g><g><path d="M3.629,51.934c-0.898-3.321-0.717-8.527,1.078-12.929c0.852,0.899,6.354,3.907,11.133,3.234     c4.779-0.674,7.205-6.824,10.371-6.824c3.164,0,9.785,6.689,9.785,6.689s5.678,4.645,10.592,4.914     c4.918,0.27,11.836-1.719,12.914,3.849c-2.756,4.011-19.527,7.297-25.84,6.589c-4.223-0.474-10.91-2.896-14.275-3.435     C16.02,53.482,6.367,53.46,3.629,51.934z" fill="#78909C"/></g><g><path d="M3.629,51.934c-0.898-3.321-0.717-8.527,1.078-12.929c0.852,0.899,6.354,3.907,11.133,3.234     c4.779-0.674,7.205-6.824,10.371-6.824c-5.256,3.803-5.182,9.748-5.182,9.748s11.961,8.337,20.227,8.41     c3.385,0.029,17.254-0.653,15.762-6.012c1.24,0.563,2.148,1.565,2.484,3.306c-2.756,4.011-19.527,7.297-25.84,6.589     c-4.223-0.474-10.91-2.896-14.275-3.435C16.02,53.482,6.367,53.46,3.629,51.934z" fill="#607D8B"/></g><g><path d="M3.629,51.934c-0.898-3.321-0.717-8.527,1.078-12.929c0.852,0.899,6.354,3.907,11.133,3.234     c4.779-0.674,7.205-6.824,10.371-6.824c3.164,0,9.785,6.689,9.785,6.689s0.16,4.171-1.676,7.12     c-4.242-0.292-7.395-2.176-12.373-1.354s-6.479,4.688-6.619,5.773C11.121,53.35,5.594,53.029,3.629,51.934z" fill="#78909C"/></g><g><g><g><path d="M35.297,47.839l-0.543-0.199c0.117-0.319,0.221-0.648,0.309-0.981l0.561,0.149       C35.527,47.169,35.418,47.516,35.297,47.839z M35.865,45.763l-0.568-0.115c0.07-0.344,0.127-0.688,0.176-1.021l0.574,0.081       C35.996,45.053,35.938,45.408,35.865,45.763z M36.172,43.649l-0.576-0.057c0.037-0.374,0.061-0.724,0.078-1.04l0.578,0.032       C36.236,42.907,36.211,43.267,36.172,43.649z" fill="#455A64"/></g></g><g><g><path d="M34.473,49.525l-0.174-0.013c-0.199-0.014-0.396-0.03-0.592-0.05l0.059-0.577       c0.131,0.013,0.264,0.025,0.396,0.036c0.064-0.109,0.125-0.22,0.184-0.335l0.516,0.266c-0.094,0.182-0.191,0.357-0.295,0.525       L34.473,49.525z" fill="#455A64"/></g></g><g><g><path d="M16.201,52.084l-0.512-0.273c0.197-0.365,0.428-0.723,0.688-1.061l0.461,0.354       C16.596,51.417,16.383,51.747,16.201,52.084z M17.619,50.236l-0.398-0.421c0.305-0.289,0.635-0.555,0.98-0.792l0.328,0.478       C18.209,49.722,17.9,49.97,17.619,50.236z M32.484,49.297c-0.408-0.068-0.811-0.146-1.209-0.229l0.121-0.568       c0.389,0.083,0.781,0.159,1.182,0.225L32.484,49.297z M19.543,48.916l-0.25-0.521c0.371-0.18,0.764-0.337,1.166-0.465       l0.178,0.552C20.258,48.603,19.891,48.748,19.543,48.916z M30.084,48.802l-1.186-0.271l0.127-0.566l1.188,0.271L30.084,48.802z        M27.719,48.289c-0.389-0.073-0.783-0.138-1.186-0.189l0.076-0.576c0.412,0.055,0.814,0.12,1.217,0.194L27.719,48.289z        M21.779,48.194l-0.105-0.571l0.225-0.038c0.344-0.058,0.678-0.101,1.004-0.134l0.057,0.577       c-0.313,0.031-0.635,0.074-0.965,0.129L21.779,48.194z M25.344,47.983c-0.299-0.018-0.602-0.028-0.912-0.028l-0.279,0.003       l-0.012-0.581l0.291-0.002c0.322,0,0.637,0.011,0.945,0.028L25.344,47.983z" fill="#455A64"/></g></g><g><g><path d="M15.615,53.68l-0.574-0.073c0.021-0.169,0.07-0.379,0.141-0.61l0.557,0.173       C15.678,53.364,15.633,53.547,15.615,53.68z" fill="#455A64"/></g></g></g><g><path d="M3.629,51.934c-0.758-2.801-0.748-6.941,0.352-10.811c1.629-0.019,9.99,3.461,9.41,12.387     C9.563,53.237,5.303,52.867,3.629,51.934z" fill="#607D8B"/></g><g><g><path d="M4.486,41.482c-0.268-0.061-0.418-0.072-0.502-0.069l-0.01-0.58c0.154,0.003,0.379,0.025,0.639,0.083      L4.486,41.482z" fill="#455A64"/></g><g><path d="M13.096,51.717c-0.031-0.4-0.08-0.797-0.148-1.178l0.57-0.103c0.072,0.4,0.125,0.816,0.156,1.236      L13.096,51.717z M12.678,49.387c-0.113-0.382-0.246-0.759-0.396-1.116l0.535-0.225c0.158,0.378,0.299,0.773,0.418,1.176      L12.678,49.387z M11.764,47.204c-0.186-0.339-0.398-0.677-0.629-1.002l0.475-0.336c0.244,0.345,0.465,0.7,0.662,1.057      L11.764,47.204z M10.4,45.269c-0.256-0.292-0.535-0.582-0.826-0.856l0.4-0.422c0.305,0.288,0.594,0.591,0.863,0.897L10.4,45.269      z M8.674,43.638c-0.313-0.243-0.639-0.477-0.971-0.691l0.314-0.487c0.348,0.226,0.688,0.468,1.014,0.722L8.674,43.638z       M6.674,42.344c-0.361-0.19-0.725-0.359-1.078-0.502l0.217-0.537c0.371,0.149,0.752,0.326,1.131,0.524L6.674,42.344z" fill="#455A64"/></g><g><path d="M13.68,53.527l-0.578-0.036c0.012-0.194,0.02-0.384,0.025-0.573l0.58,0.014      C13.703,53.127,13.693,53.327,13.68,53.527z" fill="#455A64"/></g></g><g><path d="M60.461,50.543c0.27,2.424-12.486,7.304-23.482,7.574c-5.344,0.13-9.064-1.213-12.373-2.273     c-2.172-0.695-5.896-1.4-6.719-1.497C17.281,54.275,3.289,53.814,3,51.935v4.758c0,0-0.27,2.29,15.084,2.154l-0.053-2.905     c2.314,0.354,4.842,1.056,6.832,1.693c3.307,1.061,5.494,2.11,11.178,2.11c8.295,0,23.09-3.979,24.959-7.092L60.461,50.543z" fill="#546E7A"/></g><g><g><path d="M35.086,40.162c-0.279-0.153-0.633-0.056-0.791,0.225l-1.209,2.175c-0.154,0.28-0.055,0.634,0.227,0.79      c0.088,0.049,0.186,0.072,0.281,0.072c0.203,0,0.4-0.107,0.508-0.298l1.209-2.175C35.465,40.672,35.365,40.317,35.086,40.162z" fill="#455A64"/></g><g><path d="M32.813,38.155c-0.293-0.125-0.635,0.005-0.764,0.298l-1.064,2.418      c-0.127,0.293,0.006,0.635,0.299,0.765c0.076,0.032,0.154,0.048,0.234,0.048c0.223,0,0.434-0.129,0.531-0.347l1.063-2.417      C33.24,38.626,33.105,38.284,32.813,38.155z" fill="#455A64"/></g><g><path d="M30.436,36.412c-0.297-0.125-0.635,0.015-0.758,0.311l-1.016,2.417      c-0.125,0.296,0.016,0.636,0.311,0.759c0.074,0.03,0.148,0.046,0.225,0.046c0.227,0,0.441-0.134,0.535-0.356l1.014-2.417      C30.871,36.875,30.732,36.535,30.436,36.412z" fill="#455A64"/></g><g><path d="M28.117,34.672c-0.299-0.124-0.637,0.015-0.76,0.311l-1.016,2.417c-0.125,0.296,0.016,0.636,0.311,0.76      c0.074,0.03,0.148,0.045,0.225,0.045c0.227,0,0.441-0.134,0.535-0.355l1.014-2.418C28.551,35.135,28.412,34.795,28.117,34.672z" fill="#455A64"/></g></g></g><rect fill="#607D8B" height="13" width="1" x="7" y="15"/><rect fill="#607D8B" height="8" width="1" x="10" y="10"/></g></svg>